<svg width="32" height="32" viewBox="0 0 32 32" fill="none" xmlns="http://www.w3.org/2000/svg">
  <circle cx="16" cy="16" r="10" stroke="black" stroke-width="2.5"/>
  <path d="M20.5 11.8V20.2C20.5 21.2 21.1 21.9 22 21.9C23.7 21.9 25 19.7 25 16.5C25 11.6 21.2 8 16.2 8C11.1 8 7 12.1 7 17.2C7 22.3 11 26 16.4 26C18.2 26 19.9 25.6 21.3 24.8" stroke="black" stroke-width="2.2" stroke-linecap="round"/>
  <path d="M20.4 16C20.4 18.4 18.5 20.3 16.2 20.3C13.8 20.3 12 18.4 12 16C12 13.6 13.8 11.7 16.2 11.7C18.5 11.7 20.4 13.6 20.4 16Z" stroke="black" stroke-width="2.2"/>
</svg>
