<svg width="32" height="32" viewBox="0 0 32 32" fill="none" xmlns="http://www.w3.org/2000/svg">
  <path fill-rule="evenodd" clip-rule="evenodd" d="M16 4.2C9.3 4.2 4 9.6 4 16.3C4 21.6 7.4 26.1 12.2 27.7C12.8 27.8 13 27.4 13 27.1V24.9C9.6 25.6 8.9 23.3 8.9 23.3C8.4 21.9 7.6 21.5 7.6 21.5C6.5 20.8 7.7 20.8 7.7 20.8C8.9 20.9 9.6 22.1 9.6 22.1C10.7 24 12.5 23.5 13.1 23.2C13.2 22.4 13.5 21.9 13.9 21.6C11.2 21.3 8.4 20.2 8.4 15.6C8.4 14.3 8.9 13.2 9.7 12.3C9.6 12 9.1 10.8 9.8 9.1C9.8 9.1 10.8 8.8 13.1 10.4C14.1 10.1 15 10 16 10C17 10 18 10.1 18.9 10.4C21.2 8.8 22.2 9.1 22.2 9.1C22.9 10.8 22.4 12 22.3 12.3C23.1 13.2 23.6 14.3 23.6 15.6C23.6 20.2 20.8 21.3 18.1 21.6C18.6 22 19 22.8 19 24V27.1C19 27.4 19.2 27.8 19.8 27.7C24.6 26.1 28 21.6 28 16.3C28 9.6 22.6 4.2 16 4.2Z" fill="black"/>
</svg>
