<svg width="32" height="32" viewBox="0 0 32 32" fill="none" xmlns="http://www.w3.org/2000/svg">
  <path fill-rule="evenodd" clip-rule="evenodd" d="M6.5 7C5.12 7 4 8.12 4 9.5V22.5C4 23.88 5.12 25 6.5 25H25.5C26.88 25 28 23.88 28 22.5V9.5C28 8.12 26.88 7 25.5 7H6.5ZM6.4 9.7L16 17.1L25.6 9.7C25.9 9.47 26.28 9.63 26.28 10V10.9C26.28 11.13 26.17 11.35 25.98 11.49L16.6 18.6C16.24 18.87 15.76 18.87 15.4 18.6L6.02 11.49C5.83 11.35 5.72 11.13 5.72 10.9V10C5.72 9.63 6.1 9.47 6.4 9.7Z" fill="black"/>
</svg>
