<svg width="32" height="32" viewBox="0 0 32 24" xmlns="http://www.w3.org/2000/svg">
  <path d="M2.182 24H8V10.667L0 4.667v16.945A2.389 2.389 0 002.182 24z" fill="#4285F4"/>
  <path d="M24 24h5.818A2.389 2.389 0 0032 21.611V4.667L24 10.667V24z" fill="#34A853"/>
  <path d="M24 5.333V10.667L32 4.667V2.856c0-2.688-3.067-4.222-5.2-2.61L24 2.667z" fill="#FBBC05"/>
  <path d="M8 10.667V5.333L16 12.4l8-7.067v5.334L16 18.4l-8-7.733z" fill="#EA4335"/>
  <path d="M0 2.856v1.811l8 6V2.667L5.2.246C3.06-1.366 0 .168 0 2.856z" fill="#C5221F"/>
</svg>
