<svg width="24" height="24" viewBox="0 0 24 24" fill="none" xmlns="http://www.w3.org/2000/svg">
  <path d="M6 14.7C7.8 16.3 10 17.1 12.5 17.1C14.2 17.1 16.1 16.7 18 15.8" stroke="#FF9900" stroke-width="2" stroke-linecap="round"/>
  <path d="M16.2 14.5L19.2 15.4L17.5 18.1" stroke="#FF9900" stroke-width="2" stroke-linecap="round" stroke-linejoin="round"/>
  <path d="M5.4 12.5L7.1 6.5H9.2L10.9 12.5H9.4L9.1 11.3H7.2L6.9 12.5H5.4ZM7.5 10.1H8.8L8.2 7.8L7.5 10.1Z" fill="#232F3E"/>
  <path d="M11.5 12.5V6.5H13L14.3 10.3L15.6 6.5H17.1V12.5H15.8V8.9L14.7 12.5H13.9L12.8 8.9V12.5H11.5Z" fill="#232F3E"/>
</svg>
