<svg width="24" height="24" viewBox="0 0 24 24" fill="none" xmlns="http://www.w3.org/2000/svg">
  <path d="M9.4 17.7C7 17.2 5.6 16.3 5.6 15.3C5.6 14.5 6.5 13.8 8 13.3" stroke="#111" stroke-width="1.8" stroke-linecap="round"/>
  <path d="M15.8 13.2C17.5 13.7 18.6 14.5 18.6 15.4C18.6 16.7 16.1 17.8 12.5 17.8" stroke="#111" stroke-width="1.8" stroke-linecap="round"/>
  <path d="M8.2 20C9.4 20.4 11 20.6 12.8 20.6C16 20.6 18.8 19.7 19.5 18.5" stroke="#111" stroke-width="1.8" stroke-linecap="round"/>
  <path d="M11.2 13.4C13.5 11.5 8.6 10.2 11.7 7.7C13.6 6.2 14 5.2 13 3.4" stroke="#111" stroke-width="1.8" stroke-linecap="round"/>
  <path d="M14.1 14.4C16.2 12.1 12.1 11.1 15.2 8.5" stroke="#111" stroke-width="1.8" stroke-linecap="round"/>
</svg>
