<svg width="24" height="24" viewBox="0 0 24 24" fill="none" xmlns="http://www.w3.org/2000/svg">
  <path d="M5 6.5C5 5.7 5.7 5 6.5 5H17.5C18.3 5 19 5.7 19 6.5V17.5C19 18.3 18.3 19 17.5 19H6.5C5.7 19 5 18.3 5 17.5V6.5Z" fill="#111"/>
  <path d="M8 15.8V8.2H11.2C12.9 8.2 13.9 9 13.9 10.4C13.9 11.4 13.4 12.1 12.5 12.5L14.3 15.8H12.1L10.6 12.8H10V15.8H8ZM10 11.3H11C11.6 11.3 11.9 11 11.9 10.5C11.9 10 11.6 9.7 11 9.7H10V11.3Z" fill="white"/>
  <path d="M15.3 15.8V14H17.1V15.8H15.3Z" fill="white"/>
</svg>
