<svg width="24" height="24" viewBox="0 0 24 24" fill="none" xmlns="http://www.w3.org/2000/svg">
  <circle cx="12" cy="12" r="2.3" fill="#61DAFB"/>
  <path d="M12 7.2C17.1 7.2 21.2 9.4 21.2 12C21.2 14.6 17.1 16.8 12 16.8C6.9 16.8 2.8 14.6 2.8 12C2.8 9.4 6.9 7.2 12 7.2Z" stroke="#61DAFB" stroke-width="1.5"/>
  <path d="M7.8 9.6C10.4 5.2 14.3 2.7 16.5 4C18.8 5.3 18.5 10 15.9 14.4C13.4 18.8 9.5 21.3 7.3 20C5 18.7 5.3 14 7.8 9.6Z" stroke="#61DAFB" stroke-width="1.5"/>
  <path d="M7.8 14.4C5.3 10 5 5.3 7.3 4C9.5 2.7 13.4 5.2 15.9 9.6C18.5 14 18.8 18.7 16.5 20C14.3 21.3 10.4 18.8 7.8 14.4Z" stroke="#61DAFB" stroke-width="1.5"/>
</svg>
