<svg width="24" height="24" viewBox="0 0 24 24" fill="none" xmlns="http://www.w3.org/2000/svg">
  <ellipse cx="12" cy="12" rx="10" ry="6.3" fill="#777BB4"/>
  <path d="M6.2 15L7.1 9H9.8C11.1 9 11.8 9.7 11.6 10.8C11.4 12.1 10.5 12.8 9.1 12.8H7.9L7.6 15H6.2ZM8.1 11.7H9.2C9.7 11.7 10 11.4 10.1 10.9C10.2 10.4 9.9 10.1 9.4 10.1H8.4L8.1 11.7Z" fill="white"/>
  <path d="M11.8 15L12.7 9H14.1L13.8 11H15.1C16.3 11 16.8 11.6 16.6 12.8L16.3 15H14.9L15.2 13C15.3 12.4 15.1 12.1 14.5 12.1H13.6L13.2 15H11.8Z" fill="white"/>
</svg>
