<svg width="24" height="24" viewBox="0 0 24 24" fill="none" xmlns="http://www.w3.org/2000/svg">
  <rect x="3" y="3" width="18" height="18" rx="2" fill="#F7DF1E"/>
  <path d="M8.1 17.1C8.5 17.8 9 18.4 10 18.4C10.9 18.4 11.4 18 11.4 16.5V10.1H13.4V16.6C13.4 18.7 12.2 20 10.2 20C8.5 20 7.5 19.1 7 18L8.1 17.1Z" fill="#111"/>
  <path d="M14.6 17C15.1 17.8 15.8 18.4 16.9 18.4C17.8 18.4 18.4 18 18.4 17.4C18.4 16.7 17.8 16.5 16.8 16L16.2 15.8C14.6 15.1 13.6 14.3 13.6 12.6C13.6 11 14.8 9.8 16.7 9.8C18 9.8 19 10.3 19.7 11.5L18.1 12.5C17.7 11.8 17.3 11.5 16.7 11.5C16.1 11.5 15.6 11.9 15.6 12.5C15.6 13.2 16 13.5 17 13.9L17.6 14.2C19.5 15 20.4 15.8 20.4 17.4C20.4 19.2 19 20.2 17 20.2C15.1 20.2 13.9 19.3 13.3 18.1L14.6 17Z" fill="#111"/>
</svg>
