<svg width="24" height="24" viewBox="0 0 24 24" fill="none" xmlns="http://www.w3.org/2000/svg">
  <path d="M12 3C8.8 3 8 4.3 8 6.4V8.5H13.9V9.5H5.9C4.2 9.5 3 10.9 3 12.8C3 14.8 4.2 16 5.9 16H7.6V13.7C7.6 11.7 9 10.4 11 10.4H15C16.6 10.4 18 9.1 18 7.5V6.4C18 4.4 16.3 3 12 3Z" fill="#3776AB"/>
  <path d="M10 5.3C10 4.8 10.4 4.4 10.9 4.4C11.4 4.4 11.8 4.8 11.8 5.3C11.8 5.8 11.4 6.2 10.9 6.2C10.4 6.2 10 5.8 10 5.3Z" fill="white"/>
  <path d="M12 21C15.2 21 16 19.7 16 17.6V15.5H10.1V14.5H18.1C19.8 14.5 21 13.1 21 11.2C21 9.2 19.8 8 18.1 8H16.4V10.3C16.4 12.3 15 13.6 13 13.6H9C7.4 13.6 6 14.9 6 16.5V17.6C6 19.6 7.7 21 12 21Z" fill="#FFD43B"/>
  <path d="M12.2 18.7C12.2 18.2 12.6 17.8 13.1 17.8C13.6 17.8 14 18.2 14 18.7C14 19.2 13.6 19.6 13.1 19.6C12.6 19.6 12.2 19.2 12.2 18.7Z" fill="#1E415E"/>
</svg>
