<svg width="32" height="32" viewBox="0 0 32 32" fill="none" xmlns="http://www.w3.org/2000/svg">
  <path d="M22.9 13.6C21 13.6 19.5 14.9 18.9 16.7C18.1 15.4 17.5 13.9 17.1 12.6L16.8 11.1H14.3V17.4C14.3 18.7 13.2 19.8 11.9 19.8C10.6 19.8 9.5 18.7 9.5 17.4V11.1H7V17.4C7 20.1 9.2 22.3 11.9 22.3C14.6 22.3 16.8 20.1 16.8 17.4V16.3C17.1 16.9 17.4 17.6 17.8 18.2L16.3 25H18.8L19.8 20.5C20.7 21.2 21.8 21.7 22.9 21.7C25.7 21.7 28 19.4 28 16.6C28 13.9 25.7 13.6 22.9 13.6ZM22.9 19.2C21.7 19.2 20.7 18.5 20 17.5C20.2 15.9 21 14.5 22.9 14.5C24.3 14.5 25.5 15.6 25.5 16.9C25.5 18.2 24.3 19.2 22.9 19.2Z" fill="black"/>
</svg>
